<svg width="22" height="20" viewBox="0 0 22 20" fill="none" xmlns="http://www.w3.org/2000/svg">
<path d="M2.95 19V6.1L1 1.85L2.8 1L5.15 6.05H16.75L19.1 1L20.9 1.85L18.95 6.1V19H2.95ZM8.95 12H12.95C13.2333 12 13.471 11.904 13.663 11.712C13.855 11.52 13.9507 11.2827 13.95 11C13.9493 10.7173 13.8533 10.48 13.662 10.288C13.4707 10.096 13.2333 10 12.95 10H8.95C8.66667 10 8.42933 10.096 8.238 10.288C8.04667 10.48 7.95067 10.7173 7.95 11C7.94933 11.2827 8.04533 11.5203 8.238 11.713C8.43067 11.9057 8.668 12.0013 8.95 12ZM4.95 17H16.95V8.05H4.95V17Z" fill="#FF0000" stroke="#F9D2D1" stroke-width="0.5"/>
</svg>
